<?xml version="1.0" encoding="UTF-8"?>
<!DOCTYPE svg PUBLIC "-//W3C//DTD SVG 1.1//EN" "http://www.w3.org/Graphics/SVG/1.1/DTD/svg11.dtd">
<!-- Creator: CorelDRAW X7 -->
<svg xmlns="http://www.w3.org/2000/svg" xml:space="preserve" width="887px" height="700px" version="1.1" style="shape-rendering:geometricPrecision; text-rendering:geometricPrecision; image-rendering:optimizeQuality; fill-rule:evenodd; clip-rule:evenodd"
viewBox="0 0 214 169"
 xmlns:xlink="http://www.w3.org/1999/xlink">
 <defs>
  <style type="text/css">
   <![CDATA[
    .fil0 {fill:none}
    .fil1 {fill:#5B439D}
   ]]>
  </style>
 </defs>
 <g id="Layer_x0020_1">
  <metadata id="CorelCorpID_0Corel-Layer"/>
  <g id="_1039042299440">
   <rect class="fil0" width="214" height="169"/>
   <g>
    <path class="fil1" d="M87 38c0,0 -3,-2 -8,0 -5,2 -8,7 -8,7 3,-1 10,-3 14,-2 -10,6 -19,15 -23,26 -3,-2 -7,-3 -10,-3 -11,0 -19,9 -19,19 0,10 8,19 19,19 3,0 6,-1 8,-2 6,20 25,35 47,35 22,0 41,-15 47,-35 2,1 5,2 8,2 11,0 19,-9 19,-19 0,-10 -8,-19 -19,-19 -3,0 -7,1 -9,3 -8,-18 -25,-31 -46,-31 -2,0 -4,0 -5,1 -8,-7 -13,-8 -26,-6 6,1 7,1 11,5zm-4 27l49 0c5,0 9,3 9,8l0 15c0,5 -4,9 -9,9l-49 0 -6 5c0,0 0,0 -1,0 0,0 -2,-1 -2,-2l0 -12 0 -15c0,-5 4,-8 9,-8z"/>
    <g>
     <circle class="fil1" cx="90" cy="82" r="8"/>
     <circle class="fil1" cx="125" cy="82" r="8"/>
    </g>
   </g>
  </g>
 </g>
</svg>
