<svg xmlns="http://www.w3.org/2000/svg" width="66.583" height="75.332" viewBox="0 0 66.583 75.332">
  <g id="Group_27" data-name="Group 27" transform="translate(-452 -1040)">
    <path id="ic_content_copy_24px" d="M51.062,1H9.009A6.95,6.95,0,0,0,2,7.848V55.787H9.009V7.848H51.062ZM61.575,14.7H23.026a6.95,6.95,0,0,0-7.009,6.848V69.484a6.95,6.95,0,0,0,7.009,6.848H61.575a6.95,6.95,0,0,0,7.009-6.848V21.545A6.95,6.95,0,0,0,61.575,14.7Zm0,54.787H23.026V21.545H61.575Z" transform="translate(450 1039)" fill="#fff"/>
    <text id="_" data-name="?" transform="translate(486 1091)" fill="#fff" font-size="25" font-family="Graphik-Medium, Graphik" font-weight="500"><tspan x="0" y="0">?</tspan></text>
  </g>
</svg>
