<?xml version="1.0" encoding="UTF-8"?>
<!DOCTYPE svg PUBLIC "-//W3C//DTD SVG 1.1//EN" "http://www.w3.org/Graphics/SVG/1.1/DTD/svg11.dtd">
<!-- Creator: CorelDRAW X7 -->
<svg xmlns="http://www.w3.org/2000/svg" xml:space="preserve" width="2266px" height="652px" version="1.1" style="shape-rendering:geometricPrecision; text-rendering:geometricPrecision; image-rendering:optimizeQuality; fill-rule:evenodd; clip-rule:evenodd"
viewBox="0 0 777 224"
 xmlns:xlink="http://www.w3.org/1999/xlink">
 <defs>
  <style type="text/css">
   <![CDATA[
    .fil0 {fill:none}
    .fil1 {fill:#5B439D}
    .fil2 {fill:#5B439D;fill-rule:nonzero}
   ]]>
  </style>
 </defs>
 <g id="Layer_x0020_1">
  <metadata id="CorelCorpID_0Corel-Layer"/>
  <g id="_1038978149008">
   <rect class="fil0" width="777" height="224"/>
   <g>
    <path class="fil1" d="M116 50c0,0 -4,-2 -11,0 -7,2 -11,9 -11,9 5,-1 14,-4 19,-2 -14,7 -25,19 -31,34 -4,-2 -9,-4 -13,-4 -14,0 -25,12 -25,26 0,13 11,25 25,25 4,0 7,-1 11,-3 8,27 33,46 62,46 30,0 54,-19 63,-46 3,2 7,3 10,3 14,0 26,-12 26,-25 0,-14 -12,-26 -26,-26 -4,0 -9,2 -12,4 -10,-24 -34,-41 -61,-41 -2,0 -5,1 -7,1 -10,-8 -17,-11 -34,-8 8,2 10,2 15,7zm-6 36l66 0c6,0 11,5 11,11l0 20c0,6 -5,11 -11,11l-65 0 -8 7c-1,0 -1,0 -2,0 0,0 -2,-1 -2,-2l0 -16 0 -20c0,-6 5,-11 11,-11z"/>
    <g>
     <circle class="fil1" cx="119" cy="108" r="10"/>
     <circle class="fil1" cx="166" cy="108" r="10"/>
    </g>
   </g>
   <polygon class="fil2" points="265,139 276,139 276,115 300,115 300,106 276,106 276,93 303,93 303,84 265,84 "/>
   <path id="1" class="fil2" d="M327 140c9,0 18,-6 20,-15l-9 0c-2,4 -7,7 -11,7 -7,0 -12,-4 -12,-11l32 0 1 -1 0 -1c0,-13 -8,-22 -21,-22 -14,0 -22,9 -22,22 0,12 8,21 22,21zm-12 -27c2,-5 6,-8 12,-8 5,0 9,3 11,8l-23 0z"/>
   <path id="2" class="fil2" d="M374 140c10,0 18,-6 21,-15l-10 0c-2,4 -6,7 -11,7 -6,0 -11,-4 -12,-11l33 0 1 -1 0 -1c0,-13 -9,-22 -22,-22 -13,0 -22,9 -22,22 0,12 9,21 22,21zm-11 -27c2,-5 6,-8 11,-8 6,0 10,3 12,8l-23 0z"/>
   <path id="3" class="fil2" d="M421 140c5,0 11,-2 14,-6l0 5 9 0 0 -55 -9 0 0 19c-3,-3 -9,-6 -14,-6 -12,0 -21,9 -21,22 0,12 9,21 21,21zm1 -9c-7,0 -12,-5 -12,-12 0,-8 5,-13 12,-13 8,0 13,5 13,13 0,7 -5,12 -13,12z"/>
   <path id="4" class="fil2" d="M452 139l10 0 0 -27c0,-4 2,-6 7,-6 4,0 7,2 7,6l0 27 10 0 0 -27c0,-4 3,-6 7,-6 5,0 7,2 7,6l0 27 10 0 0 -28c0,-8 -6,-14 -16,-14 -4,0 -9,2 -12,5 -3,-3 -7,-5 -11,-5 -4,0 -7,2 -9,5l0 -3 -10 0 0 40z"/>
   <path id="5" class="fil2" d="M537 140c13,0 22,-9 22,-21 0,-13 -9,-22 -22,-22 -13,0 -22,9 -22,22 0,12 9,21 22,21zm0 -9c-7,0 -12,-5 -12,-12 0,-8 5,-13 12,-13 7,0 12,5 12,13 0,7 -5,12 -12,12z"/>
   <path id="6" class="fil2" d="M564 139l9 0 0 -24c0,-6 4,-9 10,-9 6,0 10,3 10,9l0 24 10 0 0 -25c0,-10 -8,-17 -19,-17 -4,0 -8,2 -11,5l0 -3 -9 0 0 40z"/>
   <polygon id="7" class="fil2" points="610,139 620,139 620,125 623,122 636,139 649,139 630,115 647,99 633,99 620,112 620,84 610,84 "/>
   <path id="8" class="fil2" d="M670 140c10,0 18,-6 21,-15l-10 0c-2,4 -6,7 -11,7 -6,0 -11,-4 -12,-11l33 0 1 -1 0 -1c0,-13 -9,-22 -22,-22 -13,0 -22,9 -22,22 0,12 9,21 22,21zm-11 -27c2,-5 6,-8 11,-8 6,0 10,3 12,8l-23 0z"/>
   <polygon id="9" class="fil2" points="702,154 712,154 734,99 724,99 714,124 704,99 693,99 709,136 "/>
  </g>
 </g>
</svg>
