<svg xmlns="http://www.w3.org/2000/svg" width="200" height="161" viewBox="0 0 200 161">
  <g id="Group_36" data-name="Group 36" transform="translate(-3188 -5307)">
    <rect id="Rectangle_47" data-name="Rectangle 47" width="200" height="161" transform="translate(3188 5307)" fill="#fff"/>
    <rect id="Rectangle_48" data-name="Rectangle 48" width="152" height="37" transform="translate(3212 5371)" fill="rgba(245,222,179,0.32)"/>
    <rect id="Rectangle_49" data-name="Rectangle 49" width="67" height="13" transform="translate(3297 5423)" fill="rgba(245,222,179,0.32)"/>
    <path id="ic_thumb_up_24px" d="M1,21H5V9H1ZM23,10a2.006,2.006,0,0,0-2-2H14.69l.95-4.57.03-.32a1.505,1.505,0,0,0-.44-1.06L14.17,1,7.59,7.59A1.955,1.955,0,0,0,7,9V19a2.006,2.006,0,0,0,2,2h9a1.987,1.987,0,0,0,1.84-1.22l3.02-7.05A1.976,1.976,0,0,0,23,12V10.09l-.01-.01Z" transform="translate(3252 5336)" fill="wheat"/>
    <path id="ic_thumb_up_24px-2" data-name="ic_thumb_up_24px" d="M1,21H5V9H1ZM23,10a2.006,2.006,0,0,0-2-2H14.69l.95-4.57.03-.32a1.505,1.505,0,0,0-.44-1.06L14.17,1,7.59,7.59A1.955,1.955,0,0,0,7,9V19a2.006,2.006,0,0,0,2,2h9a1.987,1.987,0,0,0,1.84-1.22l3.02-7.05A1.976,1.976,0,0,0,23,12V10.09l-.01-.01Z" transform="translate(3320 5361) rotate(-180)" fill="wheat"/>
  </g>
</svg>
